<svg xmlns="http://www.w3.org/2000/svg" xmlns:xlink="http://www.w3.org/1999/xlink" width="405.18828125px" zoomAndPan="magnify" viewBox="0 0 5184 2592.000001" height="141.2px" preserveAspectRatio="xMidYMid meet" version="1.0"><defs><g/><clipPath id="83305e61d2"><path d="M 854.46875 18.3125 L 2025.878906 18.3125 L 2025.878906 1189.722656 L 854.46875 1189.722656 Z M 854.46875 18.3125 " clip-rule="nonzero"/></clipPath><clipPath id="8496b34840"><path d="M 1440.171875 18.3125 C 1116.695312 18.3125 854.46875 280.539062 854.46875 604.015625 C 854.46875 927.492188 1116.695312 1189.722656 1440.171875 1189.722656 C 1763.648438 1189.722656 2025.878906 927.492188 2025.878906 604.015625 C 2025.878906 280.539062 1763.648438 18.3125 1440.171875 18.3125 Z M 1440.171875 18.3125 " clip-rule="nonzero"/></clipPath><clipPath id="2bce706efe"><path d="M 204.007812 276 L 1881 276 L 1881 1962.1875 L 204.007812 1962.1875 Z M 204.007812 276 " clip-rule="nonzero"/></clipPath><clipPath id="164009b738"><path d="M 3106.445312 23 L 4975.65625 23 L 4975.65625 1840 L 3106.445312 1840 Z M 3106.445312 23 " clip-rule="nonzero"/></clipPath></defs><g clip-path="url(#83305e61d2)"><g clip-path="url(#8496b34840)"><path fill="#f15a24" d="M 854.46875 18.3125 L 2025.878906 18.3125 L 2025.878906 1189.722656 L 854.46875 1189.722656 Z M 854.46875 18.3125 " fill-opacity="1" fill-rule="nonzero"/></g></g><path fill="#0c303d" d="M 1042.460938 1917.855469 C 723.296875 1917.855469 463.824219 1658.382812 463.824219 1339.21875 L 590.800781 1339.21875 C 590.800781 1588.339844 793.339844 1790.878906 1042.460938 1790.878906 C 1291.582031 1790.878906 1494.125 1588.339844 1494.125 1339.21875 L 1621.097656 1339.21875 C 1621.097656 1658.382812 1361.628906 1917.855469 1042.460938 1917.855469 Z M 1042.460938 1917.855469 " fill-opacity="1" fill-rule="nonzero"/><g clip-path="url(#2bce706efe)"><path fill="#0c303d" d="M 1880.917969 856.503906 L 1880.917969 1962.363281 L 1753.941406 1962.363281 L 1753.941406 923.097656 L 1042.460938 430.71875 L 330.984375 923.097656 L 330.984375 1962.363281 L 204.007812 1962.363281 L 204.007812 856.503906 L 377.910156 736.082031 L 377.910156 443.140625 L 561.472656 443.140625 L 561.472656 609.105469 L 1042.460938 276.140625 Z M 1880.917969 856.503906 " fill-opacity="1" fill-rule="nonzero"/></g><g fill="#0c303d" fill-opacity="1"><g transform="translate(191.85427, 2256.91044)"><g><path d="M 87.90625 -93.21875 L 87.90625 0 L 16.359375 0 L 16.359375 -262.5 L 137.796875 -262.5 C 177.859375 -262.5 197.890625 -245.597656 197.890625 -211.796875 L 197.890625 -143.921875 C 197.890625 -118.023438 186.171875 -102.078125 162.734375 -96.078125 L 210.984375 0 L 134.109375 0 L 92.40625 -93.21875 Z M 116.125 -211.390625 L 87.90625 -211.390625 L 87.90625 -141.875 L 116.125 -141.875 C 122.9375 -141.875 126.34375 -144.875 126.34375 -150.875 L 126.34375 -202.390625 C 126.34375 -208.390625 122.9375 -211.390625 116.125 -211.390625 Z M 116.125 -211.390625 "/></g></g></g><g fill="#0c303d" fill-opacity="1"><g transform="translate(402.009477, 2256.91044)"><g><path d="M 87.90625 -51.109375 L 177.453125 -51.109375 L 177.453125 0 L 16.359375 0 L 16.359375 -262.5 L 173.765625 -262.5 L 173.765625 -211.390625 L 87.90625 -211.390625 L 87.90625 -157.828125 L 161.921875 -157.828125 L 161.921875 -106.71875 L 87.90625 -106.71875 Z M 87.90625 -51.109375 "/></g></g></g><g fill="#0c303d" fill-opacity="1"><g transform="translate(585.588647, 2256.91044)"><g><path d="M 80.140625 0 L 16.359375 0 L 16.359375 -262.5 L 94.453125 -262.5 L 136.96875 -122.25 L 179.5 -262.5 L 257.59375 -262.5 L 257.59375 0 L 194.21875 0 L 194.21875 -166.828125 L 161.5 -56.828125 L 112.4375 -56.828125 L 80.140625 -166 Z M 80.140625 0 "/></g></g></g><g fill="#0c303d" fill-opacity="1"><g transform="translate(859.526408, 2256.91044)"><g><path d="M 126.34375 -163.953125 L 126.34375 -206.484375 C 126.34375 -212.484375 122.9375 -215.484375 116.125 -215.484375 L 86.6875 -215.484375 L 86.6875 -154.96875 L 116.125 -154.96875 C 122.9375 -154.96875 126.34375 -157.960938 126.34375 -163.953125 Z M 126.34375 -56.015625 L 126.34375 -98.953125 C 126.34375 -104.941406 122.9375 -107.9375 116.125 -107.9375 L 86.6875 -107.9375 L 86.6875 -47.015625 L 116.125 -47.015625 C 122.9375 -47.015625 126.34375 -50.015625 126.34375 -56.015625 Z M 16.359375 -262.5 L 136.5625 -262.5 C 176.632812 -262.5 196.671875 -245.597656 196.671875 -211.796875 L 196.671875 -178.265625 C 196.671875 -154.554688 190.128906 -139.15625 177.046875 -132.0625 C 184.671875 -128.789062 189.847656 -123.816406 192.578125 -117.140625 C 195.304688 -110.460938 196.671875 -101.398438 196.671875 -89.953125 L 196.671875 -50.703125 C 196.671875 -16.898438 176.632812 0 136.5625 0 L 16.359375 0 Z M 16.359375 -262.5 "/></g></g></g><g fill="#0c303d" fill-opacity="1"><g transform="translate(1070.499398, 2256.91044)"><g><path d="M 125.53125 -262.5 L 197.078125 -262.5 L 197.078125 -50.703125 C 197.078125 -16.898438 177.039062 0 136.96875 0 L 76.453125 0 C 36.390625 0 16.359375 -16.898438 16.359375 -50.703125 L 16.359375 -262.5 L 87.90625 -262.5 L 87.90625 -60.109375 C 87.90625 -54.109375 91.3125 -51.109375 98.125 -51.109375 L 115.296875 -51.109375 C 122.117188 -51.109375 125.53125 -54.109375 125.53125 -60.109375 Z M 125.53125 -262.5 "/></g></g></g><g fill="#0c303d" fill-opacity="1"><g transform="translate(1283.925542, 2256.91044)"><g><path d="M 87.90625 -51.109375 L 169.28125 -51.109375 L 169.28125 0 L 16.359375 0 L 16.359375 -262.5 L 87.90625 -262.5 Z M 87.90625 -51.109375 "/></g></g></g><g fill="#0c303d" fill-opacity="1"><g transform="translate(1453.194543, 2256.91044)"><g><path d="M 150.0625 0 L 141.875 -39.25 L 78.90625 -39.25 L 70.328125 0 L 0 0 L 67.46875 -262.5 L 154.5625 -262.5 L 222.015625 0 Z M 89.953125 -89.953125 L 130.84375 -89.953125 L 110.8125 -184.40625 Z M 89.953125 -89.953125 "/></g></g></g><g fill="#0c303d" fill-opacity="1"><g transform="translate(1675.206766, 2256.91044)"><g><path d="M 136.15625 -262.5 L 201.578125 -262.5 L 201.578125 0 L 140.25 0 L 81.78125 -137.796875 L 81.78125 0 L 16.359375 0 L 16.359375 -262.5 L 77.6875 -262.5 L 136.15625 -122.25 Z M 136.15625 -262.5 "/></g></g></g><g fill="#f15a24" fill-opacity="1"><g transform="translate(691.779972, 2499.359393)"><g><path d="M 24.390625 -176.96875 C 23.253906 -167.894531 22.6875 -158.820312 22.6875 -149.742188 C 22.6875 -109.753906 32.613281 -69.765625 32.613281 -30.914062 C 32.613281 -14.746094 34.601562 3.6875 55.304688 3.6875 C 66.648438 3.6875 74.589844 -4.539062 74.589844 -14.179688 C 74.589844 -36.019531 70.617188 -49.347656 68.917969 -68.917969 C 70.050781 -68.632812 70.902344 -68.632812 72.035156 -68.632812 C 77.140625 -68.632812 81.960938 -70.902344 85.648438 -74.871094 C 98.695312 -40.554688 116.277344 -1.417969 139.816406 -1.417969 C 153.148438 -1.417969 161.089844 -9.925781 161.089844 -19.851562 C 161.089844 -26.375 157.683594 -33.183594 150.027344 -38.570312 C 129.324219 -49.347656 119.679688 -96.710938 109.472656 -113.726562 C 118.546875 -131.59375 128.191406 -150.3125 131.308594 -169.597656 C 131.308594 -185.195312 122.515625 -193.703125 112.308594 -193.703125 C 103.800781 -193.703125 95.007812 -187.464844 92.171875 -174.699219 C 89.050781 -156.550781 75.15625 -131.875 64.378906 -112.875 C 63.8125 -125.921875 63.8125 -138.964844 63.8125 -152.011719 C 63.8125 -160.804688 63.8125 -169.597656 63.8125 -178.386719 C 60.40625 -190.300781 52.183594 -195.972656 44.242188 -195.972656 C 35.734375 -195.972656 27.226562 -189.449219 24.390625 -176.96875 Z M 24.390625 -176.96875 "/></g></g></g><g fill="#f15a24" fill-opacity="1"><g transform="translate(852.834702, 2499.359393)"><g><path d="M 14.179688 -110.324219 C 14.179688 -66.078125 40.839844 1.417969 92.171875 1.417969 C 134.144531 1.417969 157.683594 -43.390625 157.683594 -78.84375 C 157.683594 -134.710938 133.011719 -191.71875 82.527344 -191.71875 C 34.882812 -191.71875 14.179688 -154.566406 14.179688 -110.324219 Z M 90.46875 -39.988281 C 62.960938 -39.988281 53.316406 -96.710938 53.316406 -112.589844 C 53.316406 -133.863281 61.824219 -151.445312 81.109375 -151.445312 C 107.769531 -151.445312 118.546875 -101.246094 118.546875 -78.558594 C 118.546875 -58.421875 108.335938 -39.988281 90.46875 -39.988281 Z M 90.46875 -39.988281 "/></g></g></g><g fill="#f15a24" fill-opacity="1"><g transform="translate(1024.66428, 2499.359393)"><g><path d="M 105.5 -39.703125 C 105.5 -41.121094 105.785156 -42.539062 105.785156 -43.957031 C 105.785156 -71.753906 81.394531 -99.828125 57.855469 -119.113281 C 52.183594 -123.652344 49.914062 -129.039062 49.914062 -134.144531 C 49.914062 -145.773438 61.257812 -157.683594 71.183594 -163.640625 C 87.917969 -173.566406 103.515625 -184.910156 121.949219 -192.566406 C 128.757812 -195.402344 138.117188 -198.808594 138.117188 -208.167969 C 138.117188 -215.539062 125.921875 -226.035156 111.171875 -226.035156 C 106.917969 -226.035156 105.21875 -224.332031 102.664062 -222.914062 C 53.886719 -211.003906 11.34375 -159.386719 11.34375 -131.59375 C 11.34375 -120.816406 17.582031 -110.039062 32.046875 -96.992188 C 47.078125 -85.082031 63.242188 -64.378906 63.242188 -49.632812 C 63.242188 -38.855469 57.003906 -32.898438 43.675781 -26.660156 C 34.601562 -22.121094 27.792969 -8.792969 27.792969 0 C 27.792969 12.195312 38.003906 19.285156 51.050781 19.285156 C 79.410156 19.285156 103.800781 -9.925781 105.5 -39.703125 Z M 105.5 -39.703125 "/></g></g></g><g fill="#f15a24" fill-opacity="1"><g transform="translate(1145.738894, 2499.359393)"><g><path d="M 54.453125 -83.945312 C 54.453125 -83.945312 54.734375 -83.945312 54.734375 -83.945312 C 54.167969 -66.648438 52.183594 -48.78125 52.183594 -30.914062 C 52.183594 -17.300781 61.257812 -9.644531 76.855469 -9.644531 C 93.304688 -9.644531 95.574219 -25.523438 96.425781 -48.214844 C 97.277344 -75.722656 96.140625 -102.949219 100.394531 -130.742188 C 102.382812 -144.355469 102.097656 -146.339844 112.308594 -146.339844 C 121.949219 -146.339844 133.011719 -145.488281 143.222656 -145.488281 C 151.160156 -145.488281 167.894531 -145.773438 167.894531 -159.667969 C 167.894531 -168.179688 154.847656 -175.835938 148.894531 -176.402344 C 145.488281 -176.117188 142.371094 -176.117188 139.25 -176.117188 C 106.917969 -176.117188 76.007812 -186.328125 43.675781 -186.328125 C 28.644531 -186.328125 0 -182.074219 0 -166.761719 C 0 -153.996094 13.328125 -150.878906 24.957031 -150.878906 C 32.332031 -150.878906 41.121094 -152.578125 47.078125 -152.578125 C 55.304688 -152.578125 57.289062 -149.175781 57.289062 -138.683594 C 57.289062 -121.097656 55.304688 -102.382812 54.453125 -83.945312 Z M 54.453125 -83.945312 "/></g></g></g><g fill="#f15a24" fill-opacity="1"><g transform="translate(1307.937653, 2499.359393)"><g/></g></g><g fill="#000000" fill-opacity="1"><g transform="translate(1127.062014, 317.088112)"><g><path d="M 17.078125 12.65625 C 14.347656 10.769531 12.40625 8.25 11.25 5.09375 C 10.09375 1.9375 9.941406 -1.691406 10.796875 -5.796875 C 11.648438 -9.910156 13.617188 -14.203125 16.703125 -18.671875 C 19.804688 -23.148438 23.125 -26.515625 26.65625 -28.765625 C 30.195312 -31.023438 33.648438 -32.171875 37.015625 -32.203125 C 40.378906 -32.234375 43.425781 -31.304688 46.15625 -29.421875 C 48.882812 -27.535156 50.820312 -25.015625 51.96875 -21.859375 C 53.125 -18.710938 53.28125 -15.082031 52.4375 -10.96875 C 51.59375 -6.851562 49.617188 -2.554688 46.515625 1.921875 C 43.429688 6.390625 40.113281 9.75 36.5625 12 C 33.019531 14.25 29.566406 15.390625 26.203125 15.421875 C 22.847656 15.460938 19.804688 14.539062 17.078125 12.65625 Z M 19.703125 8.859375 C 21.679688 10.222656 23.910156 10.851562 26.390625 10.75 C 28.878906 10.65625 31.503906 9.648438 34.265625 7.734375 C 37.035156 5.828125 39.753906 2.945312 42.421875 -0.90625 C 45.097656 -4.769531 46.835938 -8.332031 47.640625 -11.59375 C 48.453125 -14.863281 48.460938 -17.675781 47.671875 -20.03125 C 46.890625 -22.394531 45.507812 -24.257812 43.53125 -25.625 C 41.539062 -27 39.300781 -27.632812 36.8125 -27.53125 C 34.332031 -27.4375 31.707031 -26.429688 28.9375 -24.515625 C 26.175781 -22.609375 23.457031 -19.722656 20.78125 -15.859375 C 18.113281 -12.003906 16.375 -8.441406 15.5625 -5.171875 C 14.757812 -1.910156 14.75 0.894531 15.53125 3.25 C 16.320312 5.613281 17.710938 7.484375 19.703125 8.859375 Z M 19.703125 8.859375 "/></g></g></g><g fill="#000000" fill-opacity="1"><g transform="translate(1162.018896, 341.235749)"><g><path d="M 38.140625 -5.953125 C 39.390625 -3.941406 40.125 -1.597656 40.34375 1.078125 C 40.5625 3.765625 39.753906 6.441406 37.921875 9.109375 C 36.378906 11.328125 34.414062 12.976562 32.03125 14.0625 C 29.644531 15.144531 27.03125 15.507812 24.1875 15.15625 C 21.351562 14.800781 18.570312 13.679688 15.84375 11.796875 C 13.113281 9.921875 11.082031 7.71875 9.75 5.1875 C 8.425781 2.65625 7.847656 0.0820312 8.015625 -2.53125 C 8.179688 -5.144531 9.035156 -7.5625 10.578125 -9.78125 C 12.410156 -12.445312 14.617188 -14.148438 17.203125 -14.890625 C 19.785156 -15.640625 22.242188 -15.785156 24.578125 -15.328125 C 23.742188 -17.210938 23.300781 -19.222656 23.25 -21.359375 C 23.207031 -23.492188 23.910156 -25.617188 25.359375 -27.734375 C 26.734375 -29.722656 28.5 -31.191406 30.65625 -32.140625 C 32.820312 -33.085938 35.15625 -33.414062 37.65625 -33.125 C 40.15625 -32.84375 42.578125 -31.894531 44.921875 -30.28125 C 47.265625 -28.65625 49.015625 -26.722656 50.171875 -24.484375 C 51.328125 -22.253906 51.835938 -19.960938 51.703125 -17.609375 C 51.578125 -15.253906 50.828125 -13.082031 49.453125 -11.09375 C 48.003906 -8.976562 46.269531 -7.566406 44.25 -6.859375 C 42.238281 -6.148438 40.203125 -5.847656 38.140625 -5.953125 Z M 42.296875 -26.484375 C 39.921875 -28.117188 37.546875 -28.78125 35.171875 -28.46875 C 32.796875 -28.15625 30.894531 -26.96875 29.46875 -24.90625 C 28.070312 -22.875 27.644531 -20.6875 28.1875 -18.34375 C 28.726562 -16.007812 30.1875 -14.023438 32.5625 -12.390625 C 34.9375 -10.742188 37.3125 -10.078125 39.6875 -10.390625 C 42.0625 -10.710938 43.945312 -11.890625 45.34375 -13.921875 C 46.769531 -15.984375 47.210938 -18.179688 46.671875 -20.515625 C 46.128906 -22.847656 44.671875 -24.835938 42.296875 -26.484375 Z M 18.46875 8 C 21.394531 10.019531 24.269531 10.84375 27.09375 10.46875 C 29.914062 10.09375 32.164062 8.695312 33.84375 6.28125 C 35.457031 3.9375 35.941406 1.378906 35.296875 -1.390625 C 34.648438 -4.171875 32.863281 -6.570312 29.9375 -8.59375 C 27.007812 -10.601562 24.132812 -11.421875 21.3125 -11.046875 C 18.488281 -10.671875 16.269531 -9.3125 14.65625 -6.96875 C 12.976562 -4.550781 12.460938 -1.957031 13.109375 0.8125 C 13.753906 3.59375 15.539062 5.988281 18.46875 8 Z M 18.46875 8 "/></g></g></g><g fill="#000000" fill-opacity="1"><g transform="translate(1194.520567, 363.687367)"><g><path d="M 24.90625 -33.046875 L 39.375 -33.25 L 42.359375 -31.1875 L 14.09375 9.734375 L 10 6.90625 L 34.671875 -28.8125 L 24.6875 -28.625 Z M 24.90625 -33.046875 "/></g></g></g><g fill="#000000" fill-opacity="1"><g transform="translate(1213.81111, 377.012956)"><g><path d="M 24.90625 -33.046875 L 39.375 -33.25 L 42.359375 -31.1875 L 14.09375 9.734375 L 10 6.90625 L 34.671875 -28.8125 L 24.6875 -28.625 Z M 24.90625 -33.046875 "/></g></g></g><g fill="#000000" fill-opacity="1"><g transform="translate(1233.101654, 390.338545)"><g><path d="M 35.5625 -6.59375 C 39.195312 -1.101562 39.367188 4.019531 36.078125 8.78125 C 34.679688 10.800781 32.804688 12.304688 30.453125 13.296875 C 28.097656 14.285156 25.550781 14.613281 22.8125 14.28125 C 20.070312 13.945312 17.4375 12.90625 14.90625 11.15625 C 12.332031 9.375 10.425781 7.304688 9.1875 4.953125 C 7.945312 2.597656 7.316406 0.179688 7.296875 -2.296875 C 7.285156 -4.785156 7.789062 -7.113281 8.8125 -9.28125 L 12.921875 -6.453125 C 12.273438 -5.109375 11.984375 -3.609375 12.046875 -1.953125 C 12.109375 -0.296875 12.585938 1.359375 13.484375 3.015625 C 14.390625 4.671875 15.738281 6.117188 17.53125 7.359375 C 20.257812 9.242188 22.960938 10.039062 25.640625 9.75 C 28.316406 9.46875 30.429688 8.203125 31.984375 5.953125 C 33.597656 3.609375 34.070312 1.101562 33.40625 -1.5625 C 32.75 -4.238281 31 -6.554688 28.15625 -8.515625 L 25.9375 -10.0625 L 28.484375 -13.75 L 30.40625 -12.40625 C 33.019531 -10.601562 35.585938 -9.835938 38.109375 -10.109375 C 40.628906 -10.390625 42.644531 -11.625 44.15625 -13.8125 C 45.738281 -16.101562 46.265625 -18.484375 45.734375 -20.953125 C 45.203125 -23.421875 43.648438 -25.546875 41.078125 -27.328125 C 39.546875 -28.378906 37.925781 -29.003906 36.21875 -29.203125 C 34.519531 -29.398438 32.925781 -29.191406 31.4375 -28.578125 C 29.957031 -27.972656 28.738281 -27.109375 27.78125 -25.984375 L 23.703125 -28.796875 C 25.160156 -30.597656 27.023438 -31.953125 29.296875 -32.859375 C 31.566406 -33.773438 33.96875 -34.101562 36.5 -33.84375 C 39.039062 -33.59375 41.441406 -32.6875 43.703125 -31.125 C 46.109375 -29.457031 47.910156 -27.445312 49.109375 -25.09375 C 50.304688 -22.738281 50.820312 -20.320312 50.65625 -17.84375 C 50.5 -15.363281 49.695312 -13.078125 48.25 -10.984375 C 46.707031 -8.753906 44.804688 -7.367188 42.546875 -6.828125 C 40.285156 -6.285156 37.957031 -6.207031 35.5625 -6.59375 Z M 35.5625 -6.59375 "/></g></g></g><g fill="#000000" fill-opacity="1"><g transform="translate(1264.200412, 411.821054)"><g><path d="M 35.5625 -6.59375 C 39.195312 -1.101562 39.367188 4.019531 36.078125 8.78125 C 34.679688 10.800781 32.804688 12.304688 30.453125 13.296875 C 28.097656 14.285156 25.550781 14.613281 22.8125 14.28125 C 20.070312 13.945312 17.4375 12.90625 14.90625 11.15625 C 12.332031 9.375 10.425781 7.304688 9.1875 4.953125 C 7.945312 2.597656 7.316406 0.179688 7.296875 -2.296875 C 7.285156 -4.785156 7.789062 -7.113281 8.8125 -9.28125 L 12.921875 -6.453125 C 12.273438 -5.109375 11.984375 -3.609375 12.046875 -1.953125 C 12.109375 -0.296875 12.585938 1.359375 13.484375 3.015625 C 14.390625 4.671875 15.738281 6.117188 17.53125 7.359375 C 20.257812 9.242188 22.960938 10.039062 25.640625 9.75 C 28.316406 9.46875 30.429688 8.203125 31.984375 5.953125 C 33.597656 3.609375 34.070312 1.101562 33.40625 -1.5625 C 32.75 -4.238281 31 -6.554688 28.15625 -8.515625 L 25.9375 -10.0625 L 28.484375 -13.75 L 30.40625 -12.40625 C 33.019531 -10.601562 35.585938 -9.835938 38.109375 -10.109375 C 40.628906 -10.390625 42.644531 -11.625 44.15625 -13.8125 C 45.738281 -16.101562 46.265625 -18.484375 45.734375 -20.953125 C 45.203125 -23.421875 43.648438 -25.546875 41.078125 -27.328125 C 39.546875 -28.378906 37.925781 -29.003906 36.21875 -29.203125 C 34.519531 -29.398438 32.925781 -29.191406 31.4375 -28.578125 C 29.957031 -27.972656 28.738281 -27.109375 27.78125 -25.984375 L 23.703125 -28.796875 C 25.160156 -30.597656 27.023438 -31.953125 29.296875 -32.859375 C 31.566406 -33.773438 33.96875 -34.101562 36.5 -33.84375 C 39.039062 -33.59375 41.441406 -32.6875 43.703125 -31.125 C 46.109375 -29.457031 47.910156 -27.445312 49.109375 -25.09375 C 50.304688 -22.738281 50.820312 -20.320312 50.65625 -17.84375 C 50.5 -15.363281 49.695312 -13.078125 48.25 -10.984375 C 46.707031 -8.753906 44.804688 -7.367188 42.546875 -6.828125 C 40.285156 -6.285156 37.957031 -6.207031 35.5625 -6.59375 Z M 35.5625 -6.59375 "/></g></g></g><g fill="#000000" fill-opacity="1"><g transform="translate(1295.29917, 433.303562)"><g><path d="M 17.078125 12.65625 C 14.347656 10.769531 12.40625 8.25 11.25 5.09375 C 10.09375 1.9375 9.941406 -1.691406 10.796875 -5.796875 C 11.648438 -9.910156 13.617188 -14.203125 16.703125 -18.671875 C 19.804688 -23.148438 23.125 -26.515625 26.65625 -28.765625 C 30.195312 -31.023438 33.648438 -32.171875 37.015625 -32.203125 C 40.378906 -32.234375 43.425781 -31.304688 46.15625 -29.421875 C 48.882812 -27.535156 50.820312 -25.015625 51.96875 -21.859375 C 53.125 -18.710938 53.28125 -15.082031 52.4375 -10.96875 C 51.59375 -6.851562 49.617188 -2.554688 46.515625 1.921875 C 43.429688 6.390625 40.113281 9.75 36.5625 12 C 33.019531 14.25 29.566406 15.390625 26.203125 15.421875 C 22.847656 15.460938 19.804688 14.539062 17.078125 12.65625 Z M 19.703125 8.859375 C 21.679688 10.222656 23.910156 10.851562 26.390625 10.75 C 28.878906 10.65625 31.503906 9.648438 34.265625 7.734375 C 37.035156 5.828125 39.753906 2.945312 42.421875 -0.90625 C 45.097656 -4.769531 46.835938 -8.332031 47.640625 -11.59375 C 48.453125 -14.863281 48.460938 -17.675781 47.671875 -20.03125 C 46.890625 -22.394531 45.507812 -24.257812 43.53125 -25.625 C 41.539062 -27 39.300781 -27.632812 36.8125 -27.53125 C 34.332031 -27.4375 31.707031 -26.429688 28.9375 -24.515625 C 26.175781 -22.609375 23.457031 -19.722656 20.78125 -15.859375 C 18.113281 -12.003906 16.375 -8.441406 15.5625 -5.171875 C 14.757812 -1.910156 14.75 0.894531 15.53125 3.25 C 16.320312 5.613281 17.710938 7.484375 19.703125 8.859375 Z M 19.703125 8.859375 "/></g></g></g><g fill="#000000" fill-opacity="1"><g transform="translate(1330.256052, 457.451199)"><g><path d="M 44.625 -30.484375 C 47.113281 -28.753906 48.984375 -26.5625 50.234375 -23.90625 C 51.484375 -21.257812 51.992188 -18.460938 51.765625 -15.515625 C 51.535156 -12.566406 50.535156 -9.804688 48.765625 -7.234375 C 47.285156 -5.085938 45.640625 -3.429688 43.828125 -2.265625 C 42.023438 -1.097656 40.125 -0.113281 38.125 0.6875 L 14.4375 9.96875 L 10 6.90625 L 29.609375 -0.59375 C 28.253906 -0.894531 26.835938 -1.5625 25.359375 -2.59375 C 22.867188 -4.3125 21.003906 -6.503906 19.765625 -9.171875 C 18.535156 -11.835938 18.046875 -14.664062 18.296875 -17.65625 C 18.546875 -20.65625 19.585938 -23.476562 21.421875 -26.125 C 23.191406 -28.695312 25.414062 -30.609375 28.09375 -31.859375 C 30.78125 -33.117188 33.582031 -33.632812 36.5 -33.40625 C 39.425781 -33.175781 42.132812 -32.203125 44.625 -30.484375 Z M 27.984375 -6.40625 C 29.773438 -5.164062 31.691406 -4.457031 33.734375 -4.28125 C 35.785156 -4.101562 37.757812 -4.492188 39.65625 -5.453125 C 41.5625 -6.421875 43.195312 -7.898438 44.5625 -9.890625 C 45.9375 -11.878906 46.742188 -13.9375 46.984375 -16.0625 C 47.222656 -18.195312 46.898438 -20.191406 46.015625 -22.046875 C 45.128906 -23.898438 43.789062 -25.445312 42 -26.6875 C 40.207031 -27.914062 38.289062 -28.613281 36.25 -28.78125 C 34.21875 -28.957031 32.242188 -28.554688 30.328125 -27.578125 C 28.410156 -26.597656 26.765625 -25.113281 25.390625 -23.125 C 24.023438 -21.132812 23.226562 -19.082031 23 -16.96875 C 22.78125 -14.851562 23.109375 -12.867188 23.984375 -11.015625 C 24.859375 -9.171875 26.191406 -7.632812 27.984375 -6.40625 Z M 27.984375 -6.40625 "/></g></g></g><g fill="#000000" fill-opacity="1"><g transform="translate(1362.348534, 479.620156)"><g><path d="M 35.5625 -6.59375 C 39.195312 -1.101562 39.367188 4.019531 36.078125 8.78125 C 34.679688 10.800781 32.804688 12.304688 30.453125 13.296875 C 28.097656 14.285156 25.550781 14.613281 22.8125 14.28125 C 20.070312 13.945312 17.4375 12.90625 14.90625 11.15625 C 12.332031 9.375 10.425781 7.304688 9.1875 4.953125 C 7.945312 2.597656 7.316406 0.179688 7.296875 -2.296875 C 7.285156 -4.785156 7.789062 -7.113281 8.8125 -9.28125 L 12.921875 -6.453125 C 12.273438 -5.109375 11.984375 -3.609375 12.046875 -1.953125 C 12.109375 -0.296875 12.585938 1.359375 13.484375 3.015625 C 14.390625 4.671875 15.738281 6.117188 17.53125 7.359375 C 20.257812 9.242188 22.960938 10.039062 25.640625 9.75 C 28.316406 9.46875 30.429688 8.203125 31.984375 5.953125 C 33.597656 3.609375 34.070312 1.101562 33.40625 -1.5625 C 32.75 -4.238281 31 -6.554688 28.15625 -8.515625 L 25.9375 -10.0625 L 28.484375 -13.75 L 30.40625 -12.40625 C 33.019531 -10.601562 35.585938 -9.835938 38.109375 -10.109375 C 40.628906 -10.390625 42.644531 -11.625 44.15625 -13.8125 C 45.738281 -16.101562 46.265625 -18.484375 45.734375 -20.953125 C 45.203125 -23.421875 43.648438 -25.546875 41.078125 -27.328125 C 39.546875 -28.378906 37.925781 -29.003906 36.21875 -29.203125 C 34.519531 -29.398438 32.925781 -29.191406 31.4375 -28.578125 C 29.957031 -27.972656 28.738281 -27.109375 27.78125 -25.984375 L 23.703125 -28.796875 C 25.160156 -30.597656 27.023438 -31.953125 29.296875 -32.859375 C 31.566406 -33.773438 33.96875 -34.101562 36.5 -33.84375 C 39.039062 -33.59375 41.441406 -32.6875 43.703125 -31.125 C 46.109375 -29.457031 47.910156 -27.445312 49.109375 -25.09375 C 50.304688 -22.738281 50.820312 -20.320312 50.65625 -17.84375 C 50.5 -15.363281 49.695312 -13.078125 48.25 -10.984375 C 46.707031 -8.753906 44.804688 -7.367188 42.546875 -6.828125 C 40.285156 -6.285156 37.957031 -6.207031 35.5625 -6.59375 Z M 35.5625 -6.59375 "/></g></g></g><g fill="#000000" fill-opacity="1"><g transform="translate(1393.447292, 501.102665)"><g><path d="M 24.90625 -33.046875 L 39.375 -33.25 L 42.359375 -31.1875 L 14.09375 9.734375 L 10 6.90625 L 34.671875 -28.8125 L 24.6875 -28.625 Z M 24.90625 -33.046875 "/></g></g></g><g fill="#000000" fill-opacity="1"><g transform="translate(1412.737836, 514.428254)"><g/></g></g><g fill="#000000" fill-opacity="1"><g transform="translate(1426.650421, 524.038838)"><g><path d="M 29.96875 0.5 L 11.734375 -12.09375 L 14.265625 -15.78125 L 32.5 -3.1875 Z M 29.96875 0.5 "/></g></g></g><g fill="#000000" fill-opacity="1"><g transform="translate(1449.448397, 539.787303)"><g/></g></g><g fill="#000000" fill-opacity="1"><g transform="translate(1463.360982, 549.397887)"><g><path d="M 29.40625 20.3125 L 5.203125 3.59375 L 33.46875 -37.328125 L 37.5625 -34.5 L 11.921875 2.609375 L 32.03125 16.5 Z M 29.40625 20.3125 "/></g></g></g><g fill="#000000" fill-opacity="1"><g transform="translate(1493.349019, 570.113128)"><g><path d="M 35.1875 24.3125 L 30.796875 21.28125 L 34.078125 8.171875 L 15.609375 -4.59375 L 4.5 3.109375 L 0.296875 0.203125 L 44.109375 -29.984375 L 47.90625 -27.359375 Z M 35.296875 3.390625 L 41.875 -22.890625 L 19.640625 -7.421875 Z M 35.296875 3.390625 "/></g></g></g><g fill="#000000" fill-opacity="1"><g transform="translate(1528.832012, 594.624194)"><g><path d="M 28.546875 10.546875 L 67.828125 -13.59375 L 71.578125 -11 L 43.3125 29.921875 L 39.21875 27.09375 L 60.375 -3.546875 L 25.609375 17.6875 L 22.859375 15.796875 L 30.453125 -24.21875 L 9.296875 6.421875 L 5.203125 3.59375 L 33.46875 -37.328125 L 37.265625 -34.703125 Z M 28.546875 10.546875 "/></g></g></g><g fill="#000000" fill-opacity="1"><g transform="translate(1577.350712, 628.140111)"><g><path d="M 46.4375 -28.359375 C 48.851562 -26.691406 50.671875 -24.597656 51.890625 -22.078125 C 53.117188 -19.566406 53.648438 -16.941406 53.484375 -14.203125 C 53.328125 -11.460938 52.457031 -8.945312 50.875 -6.65625 C 49.257812 -4.3125 47.195312 -2.578125 44.6875 -1.453125 C 42.1875 -0.335938 39.539062 0.09375 36.75 -0.15625 C 33.96875 -0.414062 31.367188 -1.378906 28.953125 -3.046875 L 20.078125 -9.1875 L 9.296875 6.421875 L 5.203125 3.59375 L 33.46875 -37.328125 Z M 31.578125 -6.84375 C 34.191406 -5.039062 36.929688 -4.382812 39.796875 -4.875 C 42.671875 -5.375 45 -6.910156 46.78125 -9.484375 C 47.9375 -11.148438 48.585938 -12.925781 48.734375 -14.8125 C 48.890625 -16.695312 48.535156 -18.492188 47.671875 -20.203125 C 46.816406 -21.921875 45.53125 -23.367188 43.8125 -24.546875 L 34.9375 -30.6875 L 22.703125 -12.984375 Z M 31.578125 -6.84375 "/></g></g></g><g fill="#000000" fill-opacity="1"><g transform="translate(1611.313795, 651.601248)"><g><path d="M 19.125 14.0625 C 16.238281 12.070312 14.128906 9.664062 12.796875 6.84375 C 11.460938 4.019531 10.988281 1.035156 11.375 -2.109375 C 11.769531 -5.265625 12.988281 -8.320312 15.03125 -11.28125 L 33.171875 -37.53125 L 37.265625 -34.703125 L 19.125 -8.453125 C 16.707031 -4.941406 15.738281 -1.5 16.21875 1.875 C 16.707031 5.257812 18.550781 8.054688 21.75 10.265625 C 24.90625 12.441406 28.160156 13.164062 31.515625 12.4375 C 34.867188 11.707031 37.753906 9.585938 40.171875 6.078125 L 58.3125 -20.171875 L 62.390625 -17.34375 L 44.25 8.90625 C 42.207031 11.863281 39.773438 14.078125 36.953125 15.546875 C 34.128906 17.015625 31.171875 17.628906 28.078125 17.390625 C 24.984375 17.160156 22 16.050781 19.125 14.0625 Z M 19.125 14.0625 "/></g></g></g><g fill="#000000" fill-opacity="1"><g transform="translate(1650.36257, 678.575497)"><g><path d="M 36.25 13.890625 L 59.296875 -19.484375 L 63.40625 -16.65625 L 35.140625 24.265625 L 31.28125 21.609375 L 32.34375 -26.953125 L 9.296875 6.421875 L 5.203125 3.59375 L 33.46875 -37.328125 L 37.328125 -34.65625 Z M 36.25 13.890625 "/></g></g></g><g fill="#000000" fill-opacity="1"><g transform="translate(1690.69741, 706.438138)"><g><path d="M 36.671875 -4.1875 L 53.03125 7.109375 L 39.21875 27.09375 L 36.359375 25.109375 L 39.984375 17.859375 C 37.179688 18.921875 34.09375 19.304688 30.71875 19.015625 C 27.351562 18.734375 24.144531 17.539062 21.09375 15.4375 C 17.75 13.125 15.257812 10.050781 13.625 6.21875 C 11.988281 2.382812 11.410156 -1.734375 11.890625 -6.140625 C 12.378906 -10.554688 13.984375 -14.734375 16.703125 -18.671875 C 19.429688 -22.609375 22.769531 -25.585938 26.71875 -27.609375 C 30.675781 -29.628906 34.738281 -30.550781 38.90625 -30.375 C 43.070312 -30.195312 46.828125 -28.953125 50.171875 -26.640625 C 52.867188 -24.785156 55.015625 -22.453125 56.609375 -19.640625 C 58.210938 -16.835938 59.148438 -13.859375 59.421875 -10.703125 C 59.691406 -7.554688 59.285156 -4.570312 58.203125 -1.75 L 54.109375 -4.578125 C 54.984375 -8.003906 54.90625 -11.351562 53.875 -14.625 C 52.851562 -17.894531 50.742188 -20.632812 47.546875 -22.84375 C 44.941406 -24.644531 41.992188 -25.601562 38.703125 -25.71875 C 35.421875 -25.832031 32.1875 -25.046875 29 -23.359375 C 25.8125 -21.671875 23.070312 -19.171875 20.78125 -15.859375 C 18.5 -12.546875 17.132812 -9.097656 16.6875 -5.515625 C 16.238281 -1.941406 16.644531 1.359375 17.90625 4.390625 C 19.175781 7.421875 21.113281 9.835938 23.71875 11.640625 C 26.1875 13.335938 28.816406 14.332031 31.609375 14.625 C 34.398438 14.914062 37.09375 14.488281 39.6875 13.34375 C 42.289062 12.195312 44.53125 10.398438 46.40625 7.953125 L 34.125 -0.515625 Z M 36.671875 -4.1875 "/></g></g></g><g fill="#000000" fill-opacity="1"><g transform="translate(1734.130419, 736.440944)"><g><path d="M 9.125 -1.8125 C 9.976562 -1.21875 10.476562 -0.410156 10.625 0.609375 C 10.78125 1.628906 10.484375 2.679688 9.734375 3.765625 C 8.390625 5.722656 6.613281 7.21875 4.40625 8.25 C 2.195312 9.28125 0.0976562 9.976562 -1.890625 10.34375 L -1.984375 8.390625 C 0.773438 7.460938 2.957031 6 4.5625 4 C 3.851562 3.394531 3.441406 2.625 3.328125 1.6875 C 3.222656 0.757812 3.441406 -0.09375 3.984375 -0.875 C 4.566406 -1.726562 5.351562 -2.242188 6.34375 -2.421875 C 7.332031 -2.609375 8.257812 -2.40625 9.125 -1.8125 Z M 9.125 -1.8125 "/></g></g></g><g fill="#000000" fill-opacity="1"><g transform="translate(1744.769489, 743.790238)"><g/></g></g><g fill="#000000" fill-opacity="1"><g transform="translate(1758.682074, 753.400822)"><g><path d="M 9.296875 6.421875 L 5.203125 3.59375 L 33.46875 -37.328125 L 37.5625 -34.5 Z M 9.296875 6.421875 "/></g></g></g><g fill="#000000" fill-opacity="1"><g transform="translate(1773.179268, 763.415244)"><g><path d="M 5.203125 3.59375 L 33.46875 -37.328125 L 43.875 -30.140625 C 47.570312 -27.578125 50.347656 -24.363281 52.203125 -20.5 C 54.054688 -16.632812 54.789062 -12.523438 54.40625 -8.171875 C 54.019531 -3.828125 52.476562 0.289062 49.78125 4.1875 C 47.09375 8.082031 43.785156 10.972656 39.859375 12.859375 C 35.929688 14.742188 31.832031 15.507812 27.5625 15.15625 C 23.289062 14.800781 19.304688 13.34375 15.609375 10.78125 Z M 18.234375 6.96875 C 21.117188 8.96875 24.273438 10.085938 27.703125 10.328125 C 31.128906 10.566406 34.4375 9.914062 37.625 8.375 C 40.820312 6.84375 43.507812 4.5 45.6875 1.34375 C 47.875 -1.820312 49.117188 -5.164062 49.421875 -8.6875 C 49.734375 -12.21875 49.171875 -15.539062 47.734375 -18.65625 C 46.296875 -21.769531 44.132812 -24.328125 41.25 -26.328125 L 34.9375 -30.6875 L 11.921875 2.609375 Z M 18.234375 6.96875 "/></g></g></g><g clip-path="url(#164009b738)"><path fill="#0c303d" d="M 3406.074219 1817.835938 L 3406.074219 737.101562 L 4042.4375 369.710938 L 4678.796875 737.101562 L 4678.796875 1471.878906 L 4342.0625 1666.175781 L 4641.691406 1839.269531 L 4978.425781 1644.972656 L 4978.425781 564.238281 L 4510.316406 293.882812 L 4042.4375 23.757812 L 3574.324219 293.882812 L 3106.445312 564.238281 L 3106.445312 1644.972656 Z M 3406.074219 1817.835938 " fill-opacity="1" fill-rule="evenodd"/></g><path fill="#f15a24" d="M 3705.699219 1644.972656 L 3705.699219 1990.925781 L 4042.4375 2185.222656 L 4342.0625 2012.363281 L 4042.4375 1839.269531 Z M 3705.699219 1644.972656 " fill-opacity="1" fill-rule="evenodd"/><path fill="#f15a24" d="M 3705.699219 1298.789062 L 3950.242188 1440.074219 L 4042.4375 1493.316406 L 4379.171875 1298.789062 L 4379.171875 910.195312 L 4042.4375 715.898438 L 3705.699219 910.195312 Z M 3705.699219 1298.789062 " fill-opacity="1" fill-rule="evenodd"/><path fill="#e6521f" d="M 4042.4375 1104.492188 L 4379.171875 910.195312 L 4042.4375 715.898438 L 3705.699219 910.195312 Z M 4042.4375 1104.492188 " fill-opacity="1" fill-rule="evenodd"/><path fill="#cb4615" d="M 4379.171875 910.195312 L 4042.4375 1104.492188 L 4042.4375 1493.316406 L 4379.171875 1298.789062 Z M 4379.171875 910.195312 " fill-opacity="1" fill-rule="evenodd"/><g fill="#0c303d" fill-opacity="1"><g transform="translate(3434.437999, 2375.686675)"><g><path d="M 33.21875 -23.894531 L 33.21875 -75.960938 L 57.894531 -75.960938 L 61 -24.089844 L 88.394531 -24.089844 L 83.925781 -75.960938 L 88.976562 -155.027344 L 5.828125 -155.222656 L 5.828125 -23.894531 Z M 33.21875 -127.832031 L 60.03125 -127.832031 L 58.476562 -103.351562 L 33.21875 -103.351562 Z M 33.21875 -127.832031 "/></g></g></g><g fill="#0c303d" fill-opacity="1"><g transform="translate(3586.553407, 2375.686675)"><g><path d="M 5.828125 -155.417969 L 5.828125 -24.285156 L 88.976562 -24.089844 L 88.976562 -51.480469 L 33.21875 -51.480469 L 33.21875 -76.152344 L 88.976562 -76.152344 L 88.976562 -103.546875 L 33.21875 -103.546875 L 33.21875 -128.023438 L 88.976562 -128.023438 L 88.976562 -155.417969 Z M 5.828125 -155.417969 "/></g></g></g><g fill="#0c303d" fill-opacity="1"><g transform="translate(3738.863055, 2375.686675)"><g><path d="M 5.828125 -155.417969 L 5.828125 -24.285156 L 33.21875 -24.285156 L 33.21875 -128.023438 L 61.582031 -128.023438 L 61.582031 -24.285156 L 88.976562 -24.285156 L 88.976562 -128.023438 L 117.339844 -128.023438 L 117.339844 -24.089844 L 144.730469 -24.089844 L 144.730469 -155.417969 Z M 5.828125 -155.417969 "/></g></g></g><g fill="#0c303d" fill-opacity="1"><g transform="translate(3946.727532, 2375.686675)"><g><path d="M 5.828125 -155.417969 L 5.828125 -24.089844 L 89.171875 -24.089844 L 81.011719 -155.417969 Z M 58.476562 -76.152344 L 60.03125 -51.289062 L 33.21875 -51.289062 L 33.21875 -76.152344 Z M 55.367188 -128.023438 L 56.921875 -103.546875 L 33.21875 -103.546875 L 33.21875 -128.023438 Z M 55.367188 -128.023438 "/></g></g></g><g fill="#0c303d" fill-opacity="1"><g transform="translate(4099.231438, 2375.686675)"><g><path d="M 61.582031 -155.417969 L 61.582031 -51.480469 L 33.21875 -51.480469 L 33.21875 -155.417969 L 5.828125 -155.417969 L 5.828125 -24.089844 L 88.976562 -24.089844 L 88.976562 -155.417969 Z M 61.582031 -155.417969 "/></g></g></g><g fill="#0c303d" fill-opacity="1"><g transform="translate(4251.346872, 2375.686675)"><g><path d="M 33.21875 -51.480469 L 33.21875 -155.417969 L 5.828125 -155.417969 L 5.828125 -24.285156 L 88.976562 -24.089844 L 88.976562 -51.480469 Z M 33.21875 -51.480469 "/></g></g></g><g fill="#0c303d" fill-opacity="1"><g transform="translate(4403.656539, 2375.686675)"><g><path d="M 5.828125 -155.417969 L 5.828125 -24.285156 L 33.21875 -24.285156 L 33.21875 -76.152344 L 61.582031 -76.152344 L 61.582031 -24.089844 L 88.976562 -24.089844 L 88.976562 -155.417969 Z M 33.21875 -103.546875 L 33.21875 -128.023438 L 61.582031 -128.023438 L 61.582031 -103.546875 Z M 33.21875 -103.546875 "/></g></g></g><g fill="#0c303d" fill-opacity="1"><g transform="translate(4555.771973, 2375.686675)"><g><path d="M 88.976562 -24.089844 L 88.976562 -155.417969 L 5.828125 -155.417969 L 5.828125 -24.285156 L 33.21875 -24.285156 L 33.21875 -128.023438 L 61.582031 -128.023438 L 61.582031 -24.089844 Z M 88.976562 -24.089844 "/></g></g></g><g fill="#f15a24" fill-opacity="1"><g transform="translate(3798.407263, 2531.861445)"><g><path d="M 5.066406 -135.140625 L 5.066406 -66.21875 L 53.550781 -66.21875 L 53.550781 -44.765625 L 5.238281 -44.765625 L 5.238281 -20.945312 L 77.367188 -20.945312 L 77.367188 -90.039062 L 28.886719 -90.039062 L 28.886719 -111.320312 L 77.367188 -111.320312 L 77.367188 -135.140625 Z M 5.066406 -135.140625 "/></g></g></g><g fill="#f15a24" fill-opacity="1"><g transform="translate(3889.279559, 2531.861445)"><g><path d="M 77.535156 -111.320312 L 77.535156 -135.140625 L 5.066406 -135.140625 L 5.066406 -111.320312 L 29.394531 -111.320312 L 29.394531 -20.945312 L 53.210938 -20.945312 L 53.210938 -111.320312 Z M 77.535156 -111.320312 "/></g></g></g><g fill="#f15a24" fill-opacity="1"><g transform="translate(3980.151856, 2531.861445)"><g><path d="M 53.550781 -135.140625 L 53.550781 -44.765625 L 28.886719 -44.765625 L 28.886719 -135.140625 L 5.066406 -135.140625 L 5.066406 -20.945312 L 77.367188 -20.945312 L 77.367188 -135.140625 Z M 53.550781 -135.140625 "/></g></g></g><g fill="#f15a24" fill-opacity="1"><g transform="translate(4070.855238, 2531.861445)"><g><path d="M 70.441406 -135.140625 L 5.066406 -135.140625 L 5.066406 -20.945312 L 77.535156 -20.945312 Z M 28.886719 -111.320312 L 48.144531 -111.320312 L 52.199219 -44.765625 L 28.886719 -44.765625 Z M 28.886719 -111.320312 "/></g></g></g><g fill="#f15a24" fill-opacity="1"><g transform="translate(4161.896352, 2531.861445)"><g><path d="M 28.886719 -20.945312 L 28.886719 -135.140625 L 5.066406 -135.140625 L 5.066406 -20.945312 Z M 28.886719 -20.945312 "/></g></g></g><g fill="#f15a24" fill-opacity="1"><g transform="translate(4204.125052, 2531.861445)"><g><path d="M 77.367188 -135.140625 L 5.066406 -135.140625 L 5.066406 -21.117188 L 77.367188 -20.945312 Z M 28.886719 -111.320312 L 53.550781 -111.320312 L 53.550781 -44.765625 L 28.886719 -44.765625 Z M 28.886719 -111.320312 "/></g></g></g></svg>