<svg xmlns="http://www.w3.org/2000/svg" xmlns:xlink="http://www.w3.org/1999/xlink" width="32px" zoomAndPan="magnify" viewBox="0 0 625.5 345.74999" height="32px" preserveAspectRatio="xMidYMid meet" version="1.0"><defs><g/><clipPath id="bb7ed3e7dc"><path d="M 0 0.0117188 L 625 0.0117188 L 625 345.488281 L 0 345.488281 Z M 0 0.0117188 " clip-rule="nonzero"/></clipPath><clipPath id="e8158f0591"><path d="M 189.515625 1 L 435.117188 1 L 435.117188 240 L 189.515625 240 Z M 189.515625 1 " clip-rule="nonzero"/></clipPath><clipPath id="c820f4fde1"><path d="M 268 214 L 352 214 L 352 285.925781 L 268 285.925781 Z M 268 214 " clip-rule="nonzero"/></clipPath></defs><g clip-path="url(#bb7ed3e7dc)"><path fill="#ffffff" d="M 0 0.0117188 L 625 0.0117188 L 625 345.488281 L 0 345.488281 Z M 0 0.0117188 " fill-opacity="1" fill-rule="nonzero"/></g><g clip-path="url(#e8158f0591)"><path fill="#000000" d="M 228.886719 236.804688 L 228.886719 94.804688 L 312.5 46.53125 L 396.113281 94.804688 L 396.113281 191.351562 L 351.867188 216.878906 L 391.238281 239.621094 L 435.484375 214.09375 L 435.484375 72.09375 L 373.976562 36.570312 L 312.5 1.078125 L 250.992188 36.570312 L 189.515625 72.09375 L 189.515625 214.09375 Z M 228.886719 236.804688 " fill-opacity="1" fill-rule="evenodd"/></g><g clip-path="url(#c820f4fde1)"><path fill="#f15a24" d="M 268.253906 214.09375 L 268.253906 259.550781 L 312.5 285.078125 L 351.867188 262.367188 L 312.5 239.621094 Z M 268.253906 214.09375 " fill-opacity="1" fill-rule="evenodd"/></g><path fill="#f15a24" d="M 268.253906 168.605469 L 300.386719 187.171875 L 312.5 194.167969 L 356.746094 168.605469 L 356.746094 117.546875 L 312.5 92.019531 L 268.253906 117.546875 Z M 268.253906 168.605469 " fill-opacity="1" fill-rule="evenodd"/><path fill="#e6521f" d="M 312.5 143.078125 L 356.746094 117.546875 L 312.5 92.019531 L 268.253906 117.546875 Z M 312.5 143.078125 " fill-opacity="1" fill-rule="evenodd"/><path fill="#cb4615" d="M 356.746094 117.546875 L 312.5 143.078125 L 312.5 194.167969 L 356.746094 168.605469 Z M 356.746094 117.546875 " fill-opacity="1" fill-rule="evenodd"/><g fill="#000000" fill-opacity="1"><g transform="translate(232.612819, 310.104152)"><g><path d="M 4.363281 -3.140625 L 4.363281 -9.980469 L 7.605469 -9.980469 L 8.015625 -3.164062 L 11.613281 -3.164062 L 11.027344 -9.980469 L 11.691406 -20.371094 L 0.765625 -20.394531 L 0.765625 -3.140625 Z M 4.363281 -16.796875 L 7.886719 -16.796875 L 7.683594 -13.578125 L 4.363281 -13.578125 Z M 4.363281 -16.796875 "/></g></g></g><g fill="#000000" fill-opacity="1"><g transform="translate(252.599778, 310.104152)"><g><path d="M 0.765625 -20.421875 L 0.765625 -3.191406 L 11.691406 -3.164062 L 11.691406 -6.765625 L 4.363281 -6.765625 L 4.363281 -10.007812 L 11.691406 -10.007812 L 11.691406 -13.605469 L 4.363281 -13.605469 L 4.363281 -16.820312 L 11.691406 -16.820312 L 11.691406 -20.421875 Z M 0.765625 -20.421875 "/></g></g></g><g fill="#000000" fill-opacity="1"><g transform="translate(272.612258, 310.104152)"><g><path d="M 0.765625 -20.421875 L 0.765625 -3.191406 L 4.363281 -3.191406 L 4.363281 -16.820312 L 8.089844 -16.820312 L 8.089844 -3.191406 L 11.691406 -3.191406 L 11.691406 -16.820312 L 15.417969 -16.820312 L 15.417969 -3.164062 L 19.015625 -3.164062 L 19.015625 -20.421875 Z M 0.765625 -20.421875 "/></g></g></g><g fill="#000000" fill-opacity="1"><g transform="translate(299.924276, 310.104152)"><g><path d="M 0.765625 -20.421875 L 0.765625 -3.164062 L 11.714844 -3.164062 L 10.644531 -20.421875 Z M 7.683594 -10.007812 L 7.886719 -6.738281 L 4.363281 -6.738281 L 4.363281 -10.007812 Z M 7.273438 -16.820312 L 7.480469 -13.605469 L 4.363281 -13.605469 L 4.363281 -16.820312 Z M 7.273438 -16.820312 "/></g></g></g><g fill="#000000" fill-opacity="1"><g transform="translate(319.962281, 310.104152)"><g><path d="M 8.089844 -20.421875 L 8.089844 -6.765625 L 4.363281 -6.765625 L 4.363281 -20.421875 L 0.765625 -20.421875 L 0.765625 -3.164062 L 11.691406 -3.164062 L 11.691406 -20.421875 Z M 8.089844 -20.421875 "/></g></g></g><g fill="#000000" fill-opacity="1"><g transform="translate(339.949243, 310.104152)"><g><path d="M 4.363281 -6.765625 L 4.363281 -20.421875 L 0.765625 -20.421875 L 0.765625 -3.191406 L 11.691406 -3.164062 L 11.691406 -6.765625 Z M 4.363281 -6.765625 "/></g></g></g><g fill="#000000" fill-opacity="1"><g transform="translate(359.961726, 310.104152)"><g><path d="M 0.765625 -20.421875 L 0.765625 -3.191406 L 4.363281 -3.191406 L 4.363281 -10.007812 L 8.089844 -10.007812 L 8.089844 -3.164062 L 11.691406 -3.164062 L 11.691406 -20.421875 Z M 4.363281 -13.605469 L 4.363281 -16.820312 L 8.089844 -16.820312 L 8.089844 -13.605469 Z M 4.363281 -13.605469 "/></g></g></g><g fill="#000000" fill-opacity="1"><g transform="translate(379.948688, 310.104152)"><g><path d="M 11.691406 -3.164062 L 11.691406 -20.421875 L 0.765625 -20.421875 L 0.765625 -3.191406 L 4.363281 -3.191406 L 4.363281 -16.820312 L 8.089844 -16.820312 L 8.089844 -3.164062 Z M 11.691406 -3.164062 "/></g></g></g><g fill="#f15a24" fill-opacity="1"><g transform="translate(280.435954, 330.624525)"><g><path d="M 0.664062 -17.757812 L 0.664062 -8.699219 L 7.035156 -8.699219 L 7.035156 -5.882812 L 0.6875 -5.882812 L 0.6875 -2.753906 L 10.164062 -2.753906 L 10.164062 -11.832031 L 3.796875 -11.832031 L 3.796875 -14.628906 L 10.164062 -14.628906 L 10.164062 -17.757812 Z M 0.664062 -17.757812 "/></g></g></g><g fill="#f15a24" fill-opacity="1"><g transform="translate(292.375973, 330.624525)"><g><path d="M 10.1875 -14.628906 L 10.1875 -17.757812 L 0.664062 -17.757812 L 0.664062 -14.628906 L 3.863281 -14.628906 L 3.863281 -2.753906 L 6.992188 -2.753906 L 6.992188 -14.628906 Z M 10.1875 -14.628906 "/></g></g></g><g fill="#f15a24" fill-opacity="1"><g transform="translate(304.315992, 330.624525)"><g><path d="M 7.035156 -17.757812 L 7.035156 -5.882812 L 3.796875 -5.882812 L 3.796875 -17.757812 L 0.664062 -17.757812 L 0.664062 -2.753906 L 10.164062 -2.753906 L 10.164062 -17.757812 Z M 7.035156 -17.757812 "/></g></g></g><g fill="#f15a24" fill-opacity="1"><g transform="translate(316.233817, 330.624525)"><g><path d="M 9.253906 -17.757812 L 0.664062 -17.757812 L 0.664062 -2.753906 L 10.1875 -2.753906 Z M 3.796875 -14.628906 L 6.324219 -14.628906 L 6.859375 -5.882812 L 3.796875 -5.882812 Z M 3.796875 -14.628906 "/></g></g></g><g fill="#f15a24" fill-opacity="1"><g transform="translate(328.196017, 330.624525)"><g><path d="M 3.796875 -2.753906 L 3.796875 -17.757812 L 0.664062 -17.757812 L 0.664062 -2.753906 Z M 3.796875 -2.753906 "/></g></g></g><g fill="#f15a24" fill-opacity="1"><g transform="translate(333.744589, 330.624525)"><g><path d="M 10.164062 -17.757812 L 0.664062 -17.757812 L 0.664062 -2.773438 L 10.164062 -2.753906 Z M 3.796875 -14.628906 L 7.035156 -14.628906 L 7.035156 -5.882812 L 3.796875 -5.882812 Z M 3.796875 -14.628906 "/></g></g></g></svg>